<svg width="27" height="24" viewBox="0 0 27 24" fill="none" xmlns="http://www.w3.org/2000/svg">
<path d="M21.3586 20H5.62069C5.32255 20 5.03662 20.1054 4.8258 20.2929C4.61499 20.4804 4.49655 20.7348 4.49655 21C4.49655 21.2652 4.61499 21.5196 4.8258 21.7071C5.03662 21.8946 5.32255 22 5.62069 22H21.3586C21.6568 22 21.9427 21.8946 22.1535 21.7071C22.3643 21.5196 22.4828 21.2652 22.4828 21C22.4828 20.7348 22.3643 20.4804 22.1535 20.2929C21.9427 20.1054 21.6568 20 21.3586 20ZM12.6915 17.71C12.7984 17.801 12.9245 17.8724 13.0625 17.92C13.197 17.9729 13.3425 18.0002 13.4897 18.0002C13.6368 18.0002 13.7823 17.9729 13.9168 17.92C14.0548 17.8724 14.1809 17.801 14.2878 17.71L18.7843 13.71C18.996 13.5217 19.1149 13.2663 19.1149 13C19.1149 12.7337 18.996 12.4783 18.7843 12.29C18.5727 12.1017 18.2856 11.9959 17.9862 11.9959C17.6868 11.9959 17.3997 12.1017 17.1881 12.29L14.6138 14.59V3C14.6138 2.73478 14.4954 2.48043 14.2845 2.29289C14.0737 2.10536 13.7878 2 13.4897 2C13.1915 2 12.9056 2.10536 12.6948 2.29289C12.484 2.48043 12.3655 2.73478 12.3655 3V14.59L9.79124 12.29C9.68643 12.1968 9.562 12.1228 9.42505 12.0723C9.28811 12.0219 9.14133 11.9959 8.9931 11.9959C8.84488 11.9959 8.6981 12.0219 8.56115 12.0723C8.42421 12.1228 8.29978 12.1968 8.19497 12.29C8.09015 12.3832 8.00701 12.4939 7.95029 12.6158C7.89356 12.7376 7.86437 12.8681 7.86437 13C7.86437 13.1319 7.89356 13.2624 7.95029 13.3842C8.00701 13.5061 8.09015 13.6168 8.19497 13.71L12.6915 17.71Z" fill="#E4E4E4"/>
</svg>
