<svg width="30" height="25" viewBox="0 0 30 25" fill="none" xmlns="http://www.w3.org/2000/svg">
<path d="M30 6.48654V20.1923C30 21.4674 29.5061 22.6902 28.6271 23.5919C27.748 24.4935 26.5557 25 25.3125 25H4.6875C3.4443 25 2.25201 24.4935 1.37294 23.5919C0.49386 22.6902 0 21.4674 0 20.1923V6.48654L14.5238 15.2519C14.668 15.3392 14.8325 15.3852 15 15.3852C15.1675 15.3852 15.332 15.3392 15.4762 15.2519L30 6.48654ZM25.3125 5.95244e-08C26.4659 -0.000185992 27.5789 0.435782 28.4385 1.2245C29.2981 2.01322 29.8441 3.09931 29.9719 4.275L15 13.3077L0.0281252 4.275C0.155922 3.09931 0.701857 2.01322 1.56149 1.2245C2.42112 0.435782 3.5341 -0.000185992 4.6875 5.95244e-08H25.3125Z" fill="#FAFAFA"/>
</svg>
