<svg width="75" height="68" viewBox="0 0 75 68" fill="none" xmlns="http://www.w3.org/2000/svg">
<path d="M0.326203 34.3084V28.934C3.40998 28.934 5.54902 28.3191 6.74332 27.0891C7.93761 25.8592 8.53476 23.8716 8.53476 21.1265V15.2174C8.53476 11.9198 8.98931 9.28162 9.8984 7.30301C10.8253 5.30658 12.1087 3.80034 13.7487 2.7843C15.4064 1.76825 17.3672 1.09089 19.631 0.752207C21.8948 0.413527 24.3726 0.244188 27.0642 0.244188V8.74686C24.9608 8.74686 23.3565 9.02315 22.2513 9.57574C21.164 10.1105 20.4242 10.9483 20.0321 12.0891C19.6399 13.2121 19.4439 14.6381 19.4439 16.3672V24.1747C19.4439 25.5294 19.1943 26.8217 18.6952 28.0517C18.1961 29.2638 17.2692 30.3422 15.9144 31.287C14.5597 32.2139 12.6257 32.9536 10.1123 33.5062C7.59893 34.041 4.3369 34.3084 0.326203 34.3084ZM27.0642 67.918C24.3726 67.918 21.8948 67.7486 19.631 67.41C17.3672 67.0713 15.4064 66.3939 13.7487 65.3779C12.1087 64.3618 10.8253 62.8556 9.8984 60.8592C8.98931 58.8806 8.53476 56.2424 8.53476 52.9447V47.0089C8.53476 44.2638 7.93761 42.2763 6.74332 41.0463C5.54902 39.8164 3.40998 39.2014 0.326203 39.2014V33.8271C4.3369 33.8271 7.59893 34.1034 10.1123 34.656C12.6257 35.1907 14.5597 35.9305 15.9144 36.8752C17.2692 37.8021 18.1961 38.8806 18.6952 40.1105C19.1943 41.3226 19.4439 42.615 19.4439 43.9875V51.795C19.4439 53.5062 19.6399 54.9233 20.0321 56.0463C20.4242 57.1872 21.164 58.0249 22.2513 58.5597C23.3565 59.1123 24.9608 59.3886 27.0642 59.3886V67.918ZM0.326203 39.2014V28.934H9.92513V39.2014H0.326203ZM74.7112 33.8271V39.2014C71.6453 39.2014 69.5062 39.8164 68.2941 41.0463C67.0998 42.2763 66.5027 44.2638 66.5027 47.0089V52.9447C66.5027 56.2424 66.0392 58.8806 65.1123 60.8592C64.2032 62.8556 62.9198 64.3618 61.262 65.3779C59.6221 66.3939 57.6702 67.0713 55.4064 67.41C53.1604 67.7486 50.6827 67.918 47.9733 67.918V59.3886C50.0767 59.3886 51.672 59.1123 52.7594 58.5597C53.8645 58.0249 54.6132 57.1872 55.0054 56.0463C55.3975 54.9233 55.5936 53.5062 55.5936 51.795V43.9875C55.5936 42.615 55.8431 41.3226 56.3423 40.1105C56.8414 38.8806 57.7683 37.8021 59.123 36.8752C60.4777 35.9305 62.4118 35.1907 64.9251 34.656C67.4385 34.1034 70.7005 33.8271 74.7112 33.8271ZM47.9733 0.244188C50.6827 0.244188 53.1604 0.413527 55.4064 0.752207C57.6702 1.09089 59.6221 1.76825 61.262 2.7843C62.9198 3.80034 64.2032 5.30658 65.1123 7.30301C66.0392 9.28162 66.5027 11.9198 66.5027 15.2174V21.1265C66.5027 23.8716 67.0998 25.8592 68.2941 27.0891C69.5062 28.3191 71.6453 28.934 74.7112 28.934V34.3084C70.7005 34.3084 67.4385 34.041 64.9251 33.5062C62.4118 32.9536 60.4777 32.2139 59.123 31.287C57.7683 30.3422 56.8414 29.2638 56.3423 28.0517C55.8431 26.8217 55.5936 25.5294 55.5936 24.1747V16.3672C55.5936 14.6381 55.3975 13.2121 55.0054 12.0891C54.6132 10.9483 53.8645 10.1105 52.7594 9.57574C51.672 9.02315 50.0767 8.74686 47.9733 8.74686V0.244188ZM74.7112 28.934V39.2014H65.1123V28.934H74.7112Z" fill="white"/>
</svg>
