<svg width="36" height="37" viewBox="0 0 36 37" fill="none" xmlns="http://www.w3.org/2000/svg">
<path d="M30.705 3.50003H5.295C5.00936 3.49606 4.72575 3.5484 4.46034 3.65405C4.19494 3.75971 3.95295 3.91661 3.74819 4.11579C3.54343 4.31498 3.37992 4.55255 3.26698 4.81494C3.15405 5.07733 3.09391 5.35939 3.09 5.64503V31.355C3.09391 31.6407 3.15405 31.9227 3.26698 32.1851C3.37992 32.4475 3.54343 32.6851 3.74819 32.8843C3.95295 33.0834 4.19494 33.2403 4.46034 33.346C4.72575 33.4517 5.00936 33.504 5.295 33.5H30.705C30.9906 33.504 31.2742 33.4517 31.5396 33.346C31.805 33.2403 32.047 33.0834 32.2518 32.8843C32.4566 32.6851 32.6201 32.4475 32.733 32.1851C32.8459 31.9227 32.9061 31.6407 32.91 31.355V5.64503C32.9061 5.35939 32.8459 5.07733 32.733 4.81494C32.6201 4.55255 32.4566 4.31498 32.2518 4.11579C32.047 3.91661 31.805 3.75971 31.5396 3.65405C31.2742 3.5484 30.9906 3.49606 30.705 3.50003V3.50003ZM12.135 28.61H7.635V15.11H12.135V28.61ZM9.885 13.22C9.26439 13.22 8.6692 12.9735 8.23037 12.5347C7.79153 12.0958 7.545 11.5006 7.545 10.88C7.545 10.2594 7.79153 9.66423 8.23037 9.2254C8.6692 8.78656 9.26439 8.54003 9.885 8.54003C10.2145 8.50265 10.5483 8.53531 10.8643 8.63585C11.1804 8.7364 11.4716 8.90256 11.719 9.12347C11.9664 9.34438 12.1643 9.61504 12.2998 9.91775C12.4353 10.2205 12.5054 10.5484 12.5054 10.88C12.5054 11.2117 12.4353 11.5396 12.2998 11.8423C12.1643 12.145 11.9664 12.4157 11.719 12.6366C11.4716 12.8575 11.1804 13.0237 10.8643 13.1242C10.5483 13.2247 10.2145 13.2574 9.885 13.22V13.22ZM28.365 28.61H23.865V21.365C23.865 19.55 23.22 18.365 21.585 18.365C21.079 18.3687 20.5863 18.5274 20.1732 18.8198C19.7602 19.1121 19.4467 19.524 19.275 20C19.1576 20.3526 19.1067 20.7239 19.125 21.095V28.595H14.625C14.625 28.595 14.625 16.325 14.625 15.095H19.125V17C19.5338 16.2907 20.1284 15.7063 20.8447 15.3098C21.561 14.9134 22.3718 14.7198 23.19 14.75C26.19 14.75 28.365 16.685 28.365 20.84V28.61Z" fill="#fafafa"/>
</svg>
